<svg width="1228" height="357" viewBox="0 0 1228 357" fill="none" xmlns="http://www.w3.org/2000/svg">
<g filter="url(#filter0_f_7499_67)">
<path d="M182.59 174.175C182.59 175.637 182.59 177.098 182.59 179.291C182.59 214.37 154.266 243.603 118.678 243.603C92.5319 243.603 69.2907 227.525 59.849 204.139C59.849 202.677 59.849 201.946 59.849 200.484C59.849 165.405 88.1741 136.172 123.762 136.172C149.908 136.172 172.422 151.519 182.59 174.175L181.864 42.627C93.258 42.627 21.3565 114.979 21.3565 204.139H58.3967V335.687C147.003 335.687 218.904 263.335 218.904 174.175H182.59Z" fill="#2E88FF" fill-opacity="0.7"/>
</g>
<path d="M179.214 172.328C179.214 173.71 179.214 175.092 179.214 177.165C179.214 210.331 152.42 237.969 118.757 237.969C94.0237 237.969 72.0387 222.768 63.1075 200.658C63.1075 199.275 63.1075 198.584 63.1075 197.203C63.1075 164.036 89.9013 136.398 123.566 136.398C148.298 136.398 169.596 150.908 179.214 172.328L178.527 47.9553C94.7103 47.9553 26.6956 116.36 26.6956 200.658H61.7337V325.03C145.55 325.03 213.565 256.625 213.565 172.328H179.214Z" fill="black"/>
<path d="M299.119 104.649V217.951C299.119 231.421 302.622 241.566 309.627 248.387C316.803 255.207 326.712 258.617 339.355 258.617C352.169 258.617 362.078 255.207 369.083 248.387C376.259 241.566 379.847 231.421 379.847 217.951V104.649H409.063V217.44C409.063 231.933 405.902 244.209 399.58 254.269C393.259 264.329 384.802 271.831 374.209 276.776C363.616 281.721 351.913 284.193 339.099 284.193C326.285 284.193 314.582 281.721 303.989 276.776C293.567 271.831 285.28 264.329 279.13 254.269C272.979 244.209 269.904 231.933 269.904 217.44V104.649H299.119ZM618.042 139.177C629.147 139.177 639.056 141.479 647.77 146.082C656.654 150.686 663.574 157.506 668.528 166.543C673.654 175.58 676.217 186.492 676.217 199.281V282.403H647.257V203.628C647.257 191.011 644.097 181.377 637.775 174.727C631.454 167.907 622.826 164.497 611.891 164.497C600.957 164.497 592.243 167.907 585.751 174.727C579.429 181.377 576.268 191.011 576.268 203.628V282.403H547.309V203.628C547.309 191.011 544.148 181.377 537.827 174.727C531.503 167.907 522.875 164.497 511.94 164.497C501.006 164.497 492.292 167.907 485.8 174.727C479.478 181.377 476.318 191.011 476.318 203.628V282.403H447.102V141.479H476.318V157.591C481.102 151.794 487.167 147.276 494.513 144.036C501.86 140.796 509.719 139.177 518.091 139.177C529.367 139.177 539.45 141.564 548.334 146.338C557.218 151.112 564.052 158.018 568.836 167.055C573.108 158.529 579.771 151.794 588.826 146.849C597.881 141.734 607.62 139.177 618.042 139.177ZM742.609 162.451C747.564 155.631 754.312 150.089 762.855 145.826C771.568 141.393 781.222 139.177 791.814 139.177C804.287 139.177 815.563 142.161 825.643 148.128C835.723 154.096 843.668 162.621 849.477 173.704C855.286 184.617 858.19 197.149 858.19 211.301C858.19 225.453 855.286 238.156 849.477 249.41C843.668 260.493 835.638 269.189 825.387 275.497C815.307 281.636 804.116 284.705 791.814 284.705C780.88 284.705 771.141 282.573 762.599 278.311C754.227 274.048 747.564 268.592 742.609 261.942V282.403H713.393V93.1396H742.609V162.451ZM828.462 211.301C828.462 201.582 826.412 193.228 822.312 186.237C818.382 179.075 813.085 173.704 806.422 170.124C799.93 166.373 792.925 164.497 785.407 164.497C778.061 164.497 771.056 166.373 764.393 170.124C757.9 173.875 752.604 179.331 748.503 186.492C744.574 193.654 742.609 202.094 742.609 211.813C742.609 221.532 744.574 230.057 748.503 237.389C752.604 244.55 757.9 250.007 764.393 253.758C771.056 257.509 778.061 259.384 785.407 259.384C792.925 259.384 799.93 257.509 806.422 253.758C813.085 249.836 818.382 244.209 822.312 236.877C826.412 229.546 828.462 221.02 828.462 211.301ZM916.296 161.939C920.568 154.778 926.206 149.237 933.211 145.315C940.386 141.223 948.844 139.177 958.582 139.177V169.356H951.15C939.703 169.356 930.99 172.255 925.01 178.052C919.201 183.85 916.296 193.91 916.296 208.232V282.403H887.08V141.479H916.296V161.939ZM975.699 211.301C975.699 197.149 978.604 184.617 984.413 173.704C990.393 162.792 998.423 154.352 1008.5 148.384C1018.75 142.246 1030.03 139.177 1042.33 139.177C1053.44 139.177 1063.09 141.393 1071.29 145.826C1079.66 150.089 1086.33 155.46 1091.28 161.939V141.479H1120.75V282.403H1091.28V261.431C1086.33 268.08 1079.58 273.622 1071.03 278.055C1062.49 282.488 1052.75 284.705 1041.82 284.705C1029.69 284.705 1018.58 281.636 1008.5 275.497C998.423 269.189 990.393 260.493 984.413 249.41C978.604 238.156 975.699 225.453 975.699 211.301ZM1091.28 211.813C1091.28 202.094 1089.23 193.654 1085.13 186.492C1081.2 179.331 1075.99 173.875 1069.5 170.124C1063 166.373 1056 164.497 1048.48 164.497C1040.96 164.497 1033.96 166.373 1027.47 170.124C1020.98 173.704 1015.68 179.075 1011.58 186.237C1007.65 193.228 1005.68 201.582 1005.68 211.301C1005.68 221.02 1007.65 229.546 1011.58 236.877C1015.68 244.209 1020.98 249.836 1027.47 253.758C1034.13 257.509 1041.14 259.384 1048.48 259.384C1056 259.384 1063 257.509 1069.5 253.758C1075.99 250.007 1081.2 244.55 1085.13 237.389C1089.23 230.057 1091.28 221.532 1091.28 211.813ZM1188.34 93.1396V282.403H1159.13V93.1396H1188.34Z" fill="black"/>
<defs>
<filter id="filter0_f_7499_67" x="17.3565" y="38.627" width="205.548" height="301.06" filterUnits="userSpaceOnUse" color-interpolation-filters="sRGB">
<feFlood flood-opacity="0" result="BackgroundImageFix"/>
<feBlend mode="normal" in="SourceGraphic" in2="BackgroundImageFix" result="shape"/>
<feGaussianBlur stdDeviation="2" result="effect1_foregroundBlur_7499_67"/>
</filter>
</defs>
</svg>
