<?xml version="1.0" encoding="utf-8" standalone="yes"?>
<!DOCTYPE svg PUBLIC "-//W3C//DTD SVG 1.1//EN" "http://www.w3.org/Graphics/SVG/1.1/DTD/svg11.dtd">
<svg width="650" height="510" viewBox="0 0 650 510" style="fill:none;stroke:none;fill-rule:evenodd;clip-rule:evenodd;stroke-linecap:round;stroke-linejoin:round;stroke-miterlimit:1.5;" version="1.1" xmlns="http://www.w3.org/2000/svg" xmlns:xlink="http://www.w3.org/1999/xlink"><style class="text-font-style fontImports" data-font-family="Roboto">@import url('https://fonts.googleapis.com/css2?family=Roboto:wght@400;700&amp;display=block');</style><g id="items" style="isolation: isolate"><g id="blend" style="mix-blend-mode: normal"><g id="g-root--1.cu_sy_4hbxqs1ghqpky-fill" data-item-order="-116707" transform="translate(169.42523193359375, 154.001953125)"></g><g id="g-root-0.cu_sy_1umszh01ghqq6j-fill" data-item-order="-116704" transform="translate(267, 243)"></g><g id="g-root-6.cu_sy_1q6zhck1ghqqys-fill" data-item-order="-116700" transform="translate(213, 135)"></g><g id="g-root-5.cu_sy_1q6zhck1ghqqyt-fill" data-item-order="-116696" transform="translate(135, 267)"></g><g id="g-root-4.cu_sy_1hbyy6s1ghqolq-fill" data-item-order="-116692" transform="translate(213, 399)"></g><g id="g-root-3.cu_sy_1hbyy6s1ghqolr-fill" data-item-order="-116688" transform="translate(369, 399)"></g><g id="g-root-2.cu_sy_1cw5g2c1ghqpe0-fill" data-item-order="-116684" transform="translate(447, 267)"></g><g id="g-root-1.cu_sy_1cw5g2c1ghqpe1-fill" data-item-order="-116680" transform="translate(369, 135)"></g><g id="g-root-tx_nocodb_mccsr81ghwc22-fill" data-item-order="0" transform="translate(429, 411)"><g id="tx_nocodb_mccsr81ghwc22-fill" stroke="none" fill="#f4f4f4"><g><text style="font: 20px Roboto, sans-serif; white-space: pre;" font-size="20px" font-family="Roboto, sans-serif"><tspan x="12" y="33.5" dominant-baseline="ideographic">NocoDB</tspan></text></g></g></g><g id="g-root-tx_freshser_zn6u1g1ghwdmv-fill" data-item-order="0" transform="translate(69, 147)"><g id="tx_freshser_zn6u1g1ghwdmv-fill" stroke="none" fill="#f4f4f4"><g><text style="font: 20px Roboto, sans-serif; white-space: pre;" font-size="20px" font-family="Roboto, sans-serif"><tspan x="15.28" y="33.5" dominant-baseline="ideographic">FreshServices</tspan></text></g></g></g><g id="g-root-virb_18gbxxw1ghqq6a-fill" data-item-order="0" transform="translate(225, 147)"></g><g id="g-root-batc_13zvyqc1ghuz2d-fill" data-item-order="0" transform="translate(381, 147)"></g><g id="g-root-tx_n8n_hwjams1ghwcuc-fill" data-item-order="0" transform="translate(429, 147)"><g id="tx_n8n_hwjams1ghwcuc-fill" stroke="none" fill="#f4f4f4"><g><text style="font: 20px Roboto, sans-serif; white-space: pre;" font-size="20px" font-family="Roboto, sans-serif"><tspan x="12" y="33.5" dominant-baseline="ideographic">N8N</tspan></text></g></g></g><g id="g-root-tx_sharepoi_v7zt041ghwb9c-fill" data-item-order="0" transform="translate(15, 279)"><g id="tx_sharepoi_v7zt041ghwb9c-fill" stroke="none" fill="#f4f4f4"><g><text style="font: 20px Roboto, sans-serif; white-space: pre;" font-size="20px" font-family="Roboto, sans-serif"><tspan x="18.68" y="33.5" dominant-baseline="ideographic">SharePoint</tspan></text></g></g></g><g id="g-root-shar_1d30o0k1ghqoll-fill" data-item-order="0" transform="translate(147, 279)"></g><g id="g-root-coll_18mkot01ghuwp2-fill" data-item-order="0" transform="translate(291, 267)"></g><g id="g-root-data_5vr841ghtki4-fill" data-item-order="0" transform="translate(459, 279)"></g><g id="g-root-tx_supabase_hwjams1ghwcub-fill" data-item-order="0" transform="translate(507, 267)"><g id="tx_supabase_hwjams1ghwcub-fill" stroke="none" fill="#f4f4f4"><g><text style="font: 20px Roboto, sans-serif; white-space: pre;" font-size="20px" font-family="Roboto, sans-serif"><tspan x="12" y="33.5" dominant-baseline="ideographic">Supabase </tspan><tspan x="12" y="57.5" dominant-baseline="ideographic">Postgres</tspan></text></g></g></g><g id="g-root-tx_copilot_mccsr81ghwc21-fill" data-item-order="0" transform="translate(129, 411)"><g id="tx_copilot_mccsr81ghwc21-fill" stroke="none" fill="#f4f4f4"><g><text style="font: 20px Roboto, sans-serif; white-space: pre;" font-size="20px" font-family="Roboto, sans-serif"><tspan x="15.28" y="33.5" dominant-baseline="ideographic">CoPilot</tspan></text></g></g></g><g id="g-root-cros_mb3ul01ghs5qi-fill" data-item-order="0" transform="translate(225, 411)"></g><g id="g-root-sync_m7zh5g1ghtipv-fill" data-item-order="0" transform="translate(381, 411)"></g><g id="g-root-tx_n8nbased_90wadw1ghwdn1-fill" data-item-order="0" transform="translate(105, 39)"><g id="tx_n8nbased_90wadw1ghwdn1-fill" stroke="none" fill="#f4f4f4"><g><text style="font: 20px Roboto, sans-serif; white-space: pre;" font-size="20px" font-family="Roboto, sans-serif"><tspan x="14.17" y="33.5" dominant-baseline="ideographic">N8N-Based Workflow Automation Architecture</tspan></text></g></g></g><g id="g-root--1.cu_sy_4hbxqs1ghqpky-stroke" data-item-order="-116707" transform="translate(169.42523193359375, 154.001953125)"><g id="-1.cu_sy_4hbxqs1ghqpky-stroke" fill="none" stroke-linecap="round" stroke-linejoin="round" stroke-miterlimit="4" stroke="#f4f4f4" stroke-width="2" stroke-dasharray="5.0, 7.0"><g><path d="M 301.1492 125.386947C 278.596 102.928547 221.9224 86.998047 155.5748 86.998047C 89.2272 86.998047 32.5535 102.928547 10.0003 125.386947M 301.1496 168.608847C 278.5966 191.067447 221.9227 206.998047 155.5748 206.998047C 89.2268 206.998047 32.553 191.067447 10 168.608847M 210.102997 10C 179.338597 18.0158 136.951797 59.254 103.613297 116.9979C 71.372697 172.8403 56.731597 228.2929 63.435897 259.6058M 247.713197 34.3878C 254.418697 65.7003 239.777697 121.1542 207.536297 176.9979C 174.196997 234.7433 131.808897 275.9821 101.044297 283.9964M 210.105197 283.9965C 179.340597 275.982 136.952497 234.7433 103.613197 176.998C 71.371897 121.1543 56.730997 65.7005 63.436397 34.388M 101.046397 10C 131.810797 18.0157 174.197797 59.2539 207.536297 116.998C 239.776997 172.8404 254.417897 228.293 247.713597 259.6059"></path></g></g></g><g id="g-root-0.cu_sy_1umszh01ghqq6j-stroke" data-item-order="-116704" transform="translate(267, 243)"><g id="0.cu_sy_1umszh01ghqq6j-stroke" fill="none" stroke-linecap="round" stroke-linejoin="round" stroke-miterlimit="4" stroke="#4f91fc" stroke-width="2"><g><path d="M 102.3346 39.636C 112.4768 64.1213 100.8493 92.1925 76.364 102.3346C 51.8787 112.4768 23.8075 100.8493 13.6654 76.364C 3.5232 51.8787 15.1507 23.8075 39.636 13.6654C 64.1213 3.5232 92.1925 15.1507 102.3346 39.636Z"></path></g></g></g><g id="g-root-6.cu_sy_1q6zhck1ghqqys-stroke" data-item-order="-116700" transform="translate(213, 135)"><g id="6.cu_sy_1q6zhck1ghqqys-stroke" fill="none" stroke-linecap="round" stroke-linejoin="round" stroke-miterlimit="4" stroke="#fb6762" stroke-width="2"><g><path d="M 56.1673 24.818008C 61.2384 37.060708 55.4247 51.096208 43.182 56.167308C 30.9393 61.238408 16.9038 55.424708 11.8327 43.182008C 6.7616 30.939308 12.5753 16.903808 24.818 11.832708C 37.0607 6.761608 51.0962 12.575308 56.1673 24.818008Z"></path></g></g></g><g id="g-root-5.cu_sy_1q6zhck1ghqqyt-stroke" data-item-order="-116696" transform="translate(135, 267)"><g id="5.cu_sy_1q6zhck1ghqqyt-stroke" fill="none" stroke-linecap="round" stroke-linejoin="round" stroke-miterlimit="4" stroke="#f79438" stroke-width="2"><g><path d="M 24.818015 56.167315C 12.575315 51.096215 6.761615 37.060715 11.832715 24.818015C 16.903815 12.575315 30.939315 6.761615 43.182015 11.832715C 55.424715 16.903815 61.238415 30.939315 56.167315 43.182015C 51.096215 55.424715 37.060715 61.238415 24.818015 56.167315Z"></path></g></g></g><g id="g-root-4.cu_sy_1hbyy6s1ghqolq-stroke" data-item-order="-116692" transform="translate(213, 399)"><g id="4.cu_sy_1hbyy6s1ghqolq-stroke" fill="none" stroke-linecap="round" stroke-linejoin="round" stroke-miterlimit="4" stroke="#ffe711" stroke-width="2"><g><path d="M 43.182 56.1673C 30.9393 61.2384 16.9038 55.4247 11.8327 43.182C 6.7616 30.9393 12.5753 16.9038 24.818 11.8327C 37.0607 6.7616 51.0962 12.5753 56.1673 24.818C 61.2384 37.0607 55.4247 51.0962 43.182 56.1673Z"></path></g></g></g><g id="g-root-3.cu_sy_1hbyy6s1ghqolr-stroke" data-item-order="-116688" transform="translate(369, 399)"><g id="3.cu_sy_1hbyy6s1ghqolr-stroke" fill="none" stroke-linecap="round" stroke-linejoin="round" stroke-miterlimit="4" stroke="#a6da37" stroke-width="2"><g><path d="M 56.1673 43.182C 51.0962 55.4247 37.0607 61.2384 24.818 56.1673C 12.5753 51.0962 6.7616 37.0607 11.8327 24.818C 16.9038 12.5753 30.9393 6.7616 43.182 11.8327C 55.4247 16.9038 61.2384 30.9393 56.1673 43.182Z"></path></g></g></g><g id="g-root-2.cu_sy_1cw5g2c1ghqpe0-stroke" data-item-order="-116684" transform="translate(447, 267)"><g id="2.cu_sy_1cw5g2c1ghqpe0-stroke" fill="none" stroke-linecap="round" stroke-linejoin="round" stroke-miterlimit="4" stroke="#43dd93" stroke-width="2"><g><path d="M 56.1673 24.818C 61.2384 37.0607 55.4247 51.0962 43.182 56.1673C 30.9393 61.2384 16.9038 55.4247 11.8327 43.182C 6.7616 30.9393 12.5753 16.9038 24.818 11.8327C 37.0607 6.7616 51.0962 12.5753 56.1673 24.818Z"></path></g></g></g><g id="g-root-1.cu_sy_1cw5g2c1ghqpe1-stroke" data-item-order="-116680" transform="translate(369, 135)"><g id="1.cu_sy_1cw5g2c1ghqpe1-stroke" fill="none" stroke-linecap="round" stroke-linejoin="round" stroke-miterlimit="4" stroke="#1ac3fb" stroke-width="2"><g><path d="M 24.818 56.167308C 12.5753 51.096208 6.7616 37.060708 11.8327 24.818008C 16.9038 12.575308 30.9393 6.761608 43.182 11.832708C 55.4247 16.903808 61.2384 30.939308 56.1673 43.182008C 51.0962 55.424708 37.0607 61.238408 24.818 56.167308Z"></path></g></g></g><g id="g-root-tx_nocodb_mccsr81ghwc22-stroke" data-item-order="0" transform="translate(429, 411)"></g><g id="g-root-tx_freshser_zn6u1g1ghwdmv-stroke" data-item-order="0" transform="translate(69, 147)"></g><g id="g-root-virb_18gbxxw1ghqq6a-stroke" data-item-order="0" transform="translate(225, 147)"><g id="virb_18gbxxw1ghqq6a-stroke" fill="none" stroke-linecap="round" stroke-linejoin="round" stroke-miterlimit="4" stroke="#fb6762" stroke-width="2"><g><path d="M 10.75 18L 13.75 33L 16.75 18M 19.25 18L 19.25 33M 21.75 18L 21.75 33M 21.75 18L 24.25 18C 25.354569 18 26.25 18.895431 26.25 20L 26.25 23.5C 26.25 24.604569 25.354569 25.5 24.25 25.5L 21.75 25.5L 21.75 25.5L 21.75 18L 21.75 18ZM 21.75 25.5L 24.25 25.5C 25.354569 25.5 26.25 26.395431 26.25 27.5L 26.25 33M 28.75 18L 31.25 18C 32.354569 18 33.25 18.895431 33.25 20L 33.25 23.5C 33.25 24.604569 32.354569 25.5 31.25 25.5L 28.75 25.5L 28.75 25.5L 28.75 18L 28.75 18ZM 28.75 25.5L 31.25 25.5C 32.354569 25.5 33.25 26.395431 33.25 27.5L 33.25 31C 33.25 32.104569 32.354569 33 31.25 33L 28.75 33L 28.75 33L 28.75 25.5L 28.75 25.5ZM 16.75 13.5L 21.75 13.5M 19.25 11L 19.25 16"></path></g></g></g><g id="g-root-batc_13zvyqc1ghuz2d-stroke" data-item-order="0" transform="translate(381, 147)"><g id="batc_13zvyqc1ghuz2d-stroke" fill="none" stroke-linecap="round" stroke-linejoin="round" stroke-miterlimit="4" stroke="#1ac3fb" stroke-width="2"><g><path d="M 13.85004 24.4501C 15.50689 24.4501 16.85004 23.1069 16.85004 21.4501C 16.85004 19.79322 15.50689 18.45007 13.85004 18.45007C 12.19318 18.45007 10.850037 19.79322 10.850037 21.4501C 10.850037 23.1069 12.19318 24.4501 13.85004 24.4501ZM 22.35 33.25C 24.0069 33.25 25.35 31.9069 25.35 30.25C 25.35 28.5931 24.0069 27.25 22.35 27.25C 20.6932 27.25 19.35004 28.5931 19.35004 30.25C 19.35004 31.9069 20.6932 33.25 22.35 33.25ZM 22.35 23.9501C 23.7307 23.9501 24.85 22.8308 24.85 21.4501C 24.85 20.0694 23.7307 18.95007 22.35 18.95007C 20.9693 18.95007 19.85004 20.0694 19.85004 21.4501C 19.85004 22.8308 20.9693 23.9501 22.35 23.9501ZM 22.35 15.75C 23.7307 15.75 24.85 14.63071 24.85 13.25C 24.85 11.86929 23.7307 10.75 22.35 10.75C 20.9693 10.75 19.85004 11.86929 19.85004 13.25C 19.85004 14.63071 20.9693 15.75 22.35 15.75ZM 13.85004 32.75C 15.23075 32.75 16.35004 31.6307 16.35004 30.25C 16.35004 28.8693 15.23075 27.75 13.85004 27.75C 12.46932 27.75 11.35004 28.8693 11.35004 30.25C 11.35004 31.6307 12.46932 32.75 13.85004 32.75ZM 30.65 32.75C 32.0307 32.75 33.15 31.6307 33.15 30.25C 33.15 28.8693 32.0307 27.75 30.65 27.75C 29.2693 27.75 28.15 28.8693 28.15 30.25C 28.15 31.6307 29.2693 32.75 30.65 32.75ZM 30.65 23.9501C 32.0307 23.9501 33.15 22.8308 33.15 21.4501C 33.15 20.0694 32.0307 18.95007 30.65 18.95007C 29.2693 18.95007 28.15 20.0694 28.15 21.4501C 28.15 22.8308 29.2693 23.9501 30.65 23.9501ZM 13.85004 24.4501L 13.85004 27.75M 10 10M 22.35 23.9501L 22.35 27.25M 30.65 23.9501L 30.65 27.75M 16.85004 21.4501L 19.85002 21.4501M 24.85 21.4501L 28.1501 21.4501M 22.35 15.75L 22.35 18.95007M 22.35 31.1913C 22.8699 31.1913 23.2913 30.7699 23.2913 30.25C 23.2913 29.7302 22.8699 29.3087 22.35 29.3087C 21.8301 29.3087 21.4087 29.7302 21.4087 30.25C 21.4087 30.7699 21.8301 31.1913 22.35 31.1913ZM 13.85001 22.3914C 14.36988 22.3914 14.79132 21.97 14.79132 21.4501C 14.79132 20.9302 14.36988 20.5088 13.85001 20.5088C 13.33013 20.5088 12.90869 20.9302 12.90869 21.4501C 12.90869 21.97 13.33013 22.3914 13.85001 22.3914Z"></path></g></g></g><g id="g-root-tx_n8n_hwjams1ghwcuc-stroke" data-item-order="0" transform="translate(429, 147)"></g><g id="g-root-tx_sharepoi_v7zt041ghwb9c-stroke" data-item-order="0" transform="translate(15, 279)"></g><g id="g-root-shar_1d30o0k1ghqoll-stroke" data-item-order="0" transform="translate(147, 279)"><g id="shar_1d30o0k1ghqoll-stroke" fill="none" stroke-linecap="round" stroke-linejoin="round" stroke-miterlimit="4" stroke="#f79438" stroke-width="2"><g><path d="M 15.08 16.5C 15.609993 13.152749 18.622773 10.774388 22.001617 11.035908C 25.380462 11.297429 27.991385 14.111061 28.000001 17.5L 28 17.75M 22.5 21.15C 23.701499 18.433368 26.777163 17.08221 29.590672 18.035025C 32.404181 18.98784 34.025945 21.929815 33.329505 24.817489C 32.633066 27.705163 29.848528 29.584442 26.91 29.15M 22.5 23.51C 25.052926 23.648305 27.038394 25.782481 26.992272 28.338734C 26.94615 30.894987 24.884987 32.95615 22.328734 33.002272C 19.772481 33.048394 17.638305 31.062926 17.5 28.51M 11.5 16.5L 21.5 16.5C 21.5 16.5 22.5 16.5 22.5 17.5L 22.5 27.5C 22.5 27.5 22.5 28.5 21.5 28.5L 11.5 28.5C 11.5 28.5 10.5 28.5 10.5 27.5L 10.5 17.5C 10.5 17.5 10.5 16.5 11.5 16.5M 15 25C 17.88 26.83 19.82 23.32 16.5 22.5C 13.18 21.68 15.12 18.17 18 20"></path></g></g></g><g id="g-root-coll_18mkot01ghuwp2-stroke" data-item-order="0" transform="translate(291, 267)"><g id="coll_18mkot01ghuwp2-stroke" fill="none" stroke-linecap="round" stroke-linejoin="round" stroke-miterlimit="4" stroke="#4f91fc" stroke-width="2"><g><path d="M 17.132 17.133999C 17.131054 20.522383 19.877615 23.269712 23.265999 23.269712C 26.654383 23.269712 29.400946 20.522383 29.4 17.133999C 29.400946 13.745616 26.654383 10.998286 23.265999 10.998286C 19.877615 10.998286 17.131054 13.745616 17.132 17.133999M 17.132 50.866001C 17.131054 54.254379 19.877615 57.001709 23.265999 57.001709C 26.654383 57.001709 29.400946 54.254379 29.4 50.865997C 29.400946 47.477615 26.654383 44.730286 23.265999 44.730286C 19.877615 44.730286 17.131054 47.477615 17.132 50.865997M 38.599998 17.133999C 38.599052 20.522383 41.345612 23.269712 44.733997 23.269712C 48.122383 23.269712 50.868942 20.522383 50.867996 17.133999C 50.868942 13.745616 48.122383 10.998286 44.733997 10.998286C 41.345612 10.998286 38.599052 13.745616 38.599998 17.133999M 23.265999 23.265999L 23.265999 44.734001M 23.265999 35.534L 32.466 35.534C 39.241425 35.533997 44.733997 30.041428 44.733997 23.265999"></path></g></g></g><g id="g-root-data_5vr841ghtki4-stroke" data-item-order="0" transform="translate(459, 279)"><g id="data_5vr841ghtki4-stroke" fill="none" stroke-linecap="round" stroke-linejoin="round" stroke-miterlimit="4" stroke="#43dd93" stroke-width="2"><g><path d="M 10.857142 15.142858C 10.857143 17.509792 15.84597 19.428572 22 19.428572C 28.154032 19.428572 33.142857 17.509792 33.142857 15.142858C 33.142857 12.775923 28.154032 10.857143 22 10.857143C 15.84597 10.857143 10.857143 12.775923 10.857143 15.142858M 10.857142 15.142858L 10.857142 28.857143C 10.857142 31.222858 15.845715 33.142857 22 33.142857C 28.154285 33.142857 33.142857 31.222858 33.142857 28.857143L 33.142857 15.142858M 33.142857 22C 33.142857 24.365715 28.154285 26.285715 22 26.285715C 15.845715 26.285715 10.857142 24.365715 10.857142 22"></path></g></g></g><g id="g-root-tx_supabase_hwjams1ghwcub-stroke" data-item-order="0" transform="translate(507, 267)"></g><g id="g-root-tx_copilot_mccsr81ghwc21-stroke" data-item-order="0" transform="translate(129, 411)"></g><g id="g-root-cros_mb3ul01ghs5qi-stroke" data-item-order="0" transform="translate(225, 411)"><g id="cros_mb3ul01ghs5qi-stroke" fill="none" stroke-linecap="round" stroke-linejoin="round" stroke-miterlimit="4" stroke="#ffe711" stroke-width="2"><g><path d="M 21.5 26.5L 21.5 33.5M 21.5 10.5L 21.5 12.5M 21.5 18.5L 21.5 20.5M 30.646 18.354C 30.552294 18.447469 30.425352 18.499972 30.293 18.5L 14 18.5C 13.723858 18.5 13.5 18.276142 13.5 18L 13.5 13C 13.5 12.723858 13.723858 12.5 14 12.5L 30.293 12.5C 30.425352 12.500028 30.552294 12.552531 30.646 12.646L 33.146 15.146C 33.240042 15.239804 33.292894 15.367173 33.292894 15.5C 33.292894 15.632827 33.240042 15.760196 33.146 15.854ZM 13.354 26.354C 13.447706 26.447469 13.574648 26.499972 13.707 26.5L 30 26.5C 30.276142 26.5 30.5 26.276142 30.5 26L 30.5 21C 30.5 20.723858 30.276142 20.5 30 20.5L 13.707 20.5C 13.574648 20.500028 13.447706 20.552531 13.354 20.646L 10.854 23.146C 10.759958 23.239804 10.707106 23.367173 10.707106 23.5C 10.707106 23.632827 10.759958 23.760196 10.854 23.854Z"></path></g></g></g><g id="g-root-sync_m7zh5g1ghtipv-stroke" data-item-order="0" transform="translate(381, 411)"><g id="sync_m7zh5g1ghtipv-stroke" fill="none" stroke-linecap="round" stroke-linejoin="round" stroke-miterlimit="4" stroke="#a6da37" stroke-width="2"><g><path d="M 10.5 14.5C 10.5 16.709139 14.753295 18.5 20 18.5C 25.246705 18.5 29.5 16.709139 29.5 14.5C 29.5 12.290861 25.246705 10.5 20 10.5C 14.753295 10.5 10.5 12.290861 10.5 14.5M 20 22.5C 14.75 22.5 10.5 20.71 10.5 18.5M 19 27C 14.22 26.77 10.5 25.07 10.5 23M 18 31.41C 13.71 31 10.5 29.42 10.5 27.5L 10.5 14.5M 29.5 14.5L 29.5 19.5M 29.09 25.14L 32.129999 26.5L 33.5 23.43M 21.32 25.26C 22.168473 22.785416 24.624694 21.234735 27.223655 21.532858C 29.822616 21.830981 31.863905 23.897565 32.130001 26.5M 24.38 29.860001L 21.34 28.5L 19.97 31.57M 32.15 29.73C 31.302934 32.20402 28.848856 33.755668 26.250608 33.460031C 23.65236 33.164393 21.609605 31.101079 21.34 28.500001"></path></g></g></g><g id="g-root-tx_n8nbased_90wadw1ghwdn1-stroke" data-item-order="0" transform="translate(105, 39)"></g></g></g></svg>