<?xml version="1.0" encoding="utf-8" standalone="yes"?>
<!DOCTYPE svg PUBLIC "-//W3C//DTD SVG 1.1//EN" "http://www.w3.org/Graphics/SVG/1.1/DTD/svg11.dtd">
<svg width="698" height="560" viewBox="0 0 698 560" style="fill:none;stroke:none;fill-rule:evenodd;clip-rule:evenodd;stroke-linecap:round;stroke-linejoin:round;stroke-miterlimit:1.5;" version="1.1" xmlns="http://www.w3.org/2000/svg" xmlns:xlink="http://www.w3.org/1999/xlink"><style class="text-font-style fontImports" data-font-family="Roboto">@import url('https://fonts.googleapis.com/css2?family=Roboto:wght@400;700&amp;display=block');</style><g id="items" style="isolation: isolate"><g id="blend" style="mix-blend-mode: normal"><g id="g-root--1.cu_sy_1q6zno41fdv6yo-fill" data-item-order="-152058" transform="translate(303, 111)"><g id="-1.cu_sy_1q6zno41fdv6yo-fill" stroke="none" fill="#545454"><g><path d="M 65.766602 394C 80.754802 394 106.000002 308.039 106.000002 202C 106.000002 95.9613 80.754802 10 65.766602 10C 80.775202 10.01 92.941702 96.2224 92.941702 202C 92.941702 307.778 80.775202 393.99 65.766602 394ZM 65.765897 394C 80.774597 393.99 92.941097 307.778 92.941097 202C 92.941097 96.2224 80.774597 10.01 65.765897 10L 51.957397 10C 66.060697 16.8878 77.199297 100.4719 77.199297 202C 77.199297 303.528 65.382597 387.112 51.279297 394L 65.765897 394ZM 77.2 202C 77.2 303.528 65.3833 387.112 51.28 394L 50.0615 394C 35.0734 394 10 308.039 10 202C 10 95.9613 35.0734 10 50.0615 10C 50.6991 10 51.9581 10 51.9581 10C 66.0614 16.8878 77.2 100.4719 77.2 202Z"></path></g></g></g><g id="g-root-0.cr-medium_cr_1hbz4ic1fdv4ll-fill" data-item-order="-152054" transform="translate(471, 267)"><g id="0.cr-medium_cr_1hbz4ic1fdv4ll-fill" stroke="none" fill="#545454"><g><path d="M 10 46C 10 65.882251 26.117749 82 46 82C 65.882251 82 82 65.882251 82 46C 82 26.117749 65.882251 10 46 10C 26.117749 10 10 26.117749 10 46"></path></g></g></g><g id="g-root-5.line_sy_1hbz4ic1fdv4lm-fill" data-item-order="-152047" transform="translate(219, 345)"></g><g id="g-root-5.cr-small_cr_1cw5mdw1fdv5dv-fill" data-item-order="-152046" transform="translate(159, 441)"><g id="5.cr-small_cr_1cw5mdw1fdv5dv-fill" stroke="none" fill="#60436d"><g><path d="M 10 40C 10.000002 56.568544 23.431459 70.000002 40.000002 70.000002C 56.568544 70.000002 70.000002 56.568544 70.000002 40.000002C 70.000002 23.431459 56.568544 10.000002 40.000002 10.000002C 23.431459 10.000002 10.000002 23.431459 10.000002 40.000002"></path></g></g></g><g id="g-root-4.line_sy_1cw5mdw1fdv5dw-fill" data-item-order="-152039" transform="translate(219, 327)"></g><g id="g-root-4.cr-small_cr_1cw5mdw1fdv5dx-fill" data-item-order="-152038" transform="translate(159, 357)"><g id="4.cr-small_cr_1cw5mdw1fdv5dx-fill" stroke="none" fill="#68403f"><g><path d="M 10 40C 10.000002 56.568544 23.431459 70.000002 40.000002 70.000002C 56.568544 70.000002 70.000002 56.568544 70.000002 40.000002C 70.000002 23.431459 56.568544 10.000002 40.000002 10.000002C 23.431459 10.000002 10.000002 23.431459 10.000002 40.000002"></path></g></g></g><g id="g-root-3.line_sy_1cw5mdw1fdv5dy-fill" data-item-order="-152031" transform="translate(219.10940551757812, 303)"></g><g id="g-root-3.cr-small_cr_140im501fdv66n-fill" data-item-order="-152030" transform="translate(159, 273)"><g id="3.cr-small_cr_140im501fdv66n-fill" stroke="none" fill="#5c4938"><g><path d="M 10 40C 10.000002 56.568544 23.431459 70.000002 40.000002 70.000002C 56.568544 70.000002 70.000002 56.568544 70.000002 40.000002C 70.000002 23.431459 56.568544 10.000002 40.000002 10.000002C 23.431459 10.000002 10.000002 23.431459 10.000002 40.000002"></path></g></g></g><g id="g-root-2.line_sy_18gc49g1fdv668-fill" data-item-order="-152023" transform="translate(219, 219)"></g><g id="g-root-2.cr-small_cr_18gc49g1fdv669-fill" data-item-order="-152022" transform="translate(159, 189)"><g id="2.cr-small_cr_18gc49g1fdv669-fill" stroke="none" fill="#3b5649"><g><path d="M 10 40C 10.000002 56.568544 23.431459 70.000002 40.000002 70.000002C 56.568544 70.000002 70.000002 56.568544 70.000002 40.000002C 70.000002 23.431459 56.568544 10.000002 40.000002 10.000002C 23.431459 10.000002 10.000002 23.431459 10.000002 40.000002"></path></g></g></g><g id="g-root-1.line_sy_18gc49g1fdv66a-fill" data-item-order="-152015" transform="translate(219, 135)"></g><g id="g-root-1.cr-small_cr_zkp40k1fdv6yz-fill" data-item-order="-152014" transform="translate(159, 105)"><g id="1.cr-small_cr_zkp40k1fdv6yz-fill" stroke="none" fill="#54502f"><g><path d="M 10 40C 10.000002 56.568544 23.431459 70.000002 40.000002 70.000002C 56.568544 70.000002 70.000002 56.568544 70.000002 40.000002C 70.000002 23.431459 56.568544 10.000002 40.000002 10.000002C 23.431459 10.000002 10.000002 23.431459 10.000002 40.000002"></path></g></g></g><g id="g-root-1_1ut1wno1fdzdhm-fill" data-item-order="0" transform="translate(171, 117)"></g><g id="g-root-serv_4nkuxg1fdv75x-fill" data-item-order="0" transform="translate(171, 453)"></g><g id="g-root-tx_datavers_mb40wk1fe0qo7-fill" data-item-order="0" transform="translate(51, 207)"><g id="tx_datavers_mb40wk1fe0qo7-fill" stroke="none" fill="#f4f4f4"><g><text style="font: 20px Roboto, sans-serif; white-space: pre;" font-size="20px" font-family="Roboto, sans-serif"><tspan x="14.84" y="33.5" dominant-baseline="ideographic">Dataverse</tspan></text></g></g></g><g id="g-root-key_4il28k1fdzdhd-fill" data-item-order="0" transform="translate(171, 201)"></g><g id="g-root-tx_powerapp_mb40wk1fe0qo8-fill" data-item-order="0" transform="translate(27, 123)"><g id="tx_powerapp_mb40wk1fe0qo8-fill" stroke="none" fill="#f4f4f4"><g><text style="font: 20px Roboto, sans-serif; white-space: pre;" font-size="20px" font-family="Roboto, sans-serif"><tspan x="20.9" y="33.5" dominant-baseline="ideographic">Power Apps</tspan></text></g></g></g><g id="g-root-tx_copilots_qqb1xw1fe0t1q-fill" data-item-order="0" transform="translate(15, 291)"><g id="tx_copilots_qqb1xw1fe0t1q-fill" stroke="none" fill="#f4f4f4"><g><text style="font: 20px Roboto, sans-serif; white-space: pre;" font-size="20px" font-family="Roboto, sans-serif"><tspan x="13.33" y="33.5" dominant-baseline="ideographic">CoPilot Studio</tspan></text></g></g></g><g id="g-root-spee_dccn841fdxypz-fill" data-item-order="0" transform="translate(171, 285)"></g><g id="g-root-netw_zkp40k1fdv6z0-fill" data-item-order="0" transform="translate(483, 279)"></g><g id="g-root-tx_cohesive_141rkb81fe0rgr-fill" data-item-order="0" transform="translate(555, 279)"><g id="tx_cohesive_141rkb81fe0rgr-fill" stroke="none" fill="#f4f4f4"><g><text style="font: 20px Roboto, sans-serif; white-space: pre;" font-size="20px" font-family="Roboto, sans-serif"><tspan x="12" y="33.5" dominant-baseline="ideographic">Cohesive </tspan><tspan x="12" y="57.5" dominant-baseline="ideographic">Ecosystem</tspan></text></g></g></g><g id="g-root-tx_sharepoi_qqb1xw1fe0t1p-fill" data-item-order="0" transform="translate(39, 375)"><g id="tx_sharepoi_qqb1xw1fe0t1p-fill" stroke="none" fill="#f4f4f4"><g><text style="font: 20px Roboto, sans-serif; white-space: pre;" font-size="20px" font-family="Roboto, sans-serif"><tspan x="18.68" y="33.5" dominant-baseline="ideographic">SharePoint</tspan></text></g></g></g><g id="g-root-shar_141rkb81fdwlqm-fill" data-item-order="0" transform="translate(171, 369)"></g><g id="g-root-tx_freshser_zly26s1fe0s90-fill" data-item-order="0" transform="translate(15, 447)"><g id="tx_freshser_zly26s1fe0s90-fill" stroke="none" fill="#f4f4f4"><g><text style="font: 20px Roboto, sans-serif; white-space: pre;" font-size="20px" font-family="Roboto, sans-serif"><tspan x="15.28" y="33.5" dominant-baseline="ideographic">FreshServices </tspan><tspan x="108.89" y="57.5" dominant-baseline="ideographic">API</tspan></text></g></g></g><g id="g-root-tx_microsof_hvais41fe0rgh-fill" data-item-order="0" transform="translate(183, 39)"><g id="tx_microsof_hvais41fe0rgh-fill" stroke="none" fill="#f4f4f4"><g><text style="font: 20px Roboto, sans-serif; white-space: pre;" font-size="20px" font-family="Roboto, sans-serif"><tspan x="16.06" y="33.5" dominant-baseline="ideographic">Microsoft CoPilot Stack Architecture</tspan></text></g></g></g><g id="g-root--1.cu_sy_1q6zno41fdv6yo-stroke" data-item-order="-152058" transform="translate(303, 111)"><g id="-1.cu_sy_1q6zno41fdv6yo-stroke" fill="none" stroke-linecap="round" stroke-linejoin="round" stroke-miterlimit="4" stroke="#b7b7b7" stroke-width="2"><g><path d="M 65.766602 394C 80.754802 394 106.000002 308.0387 106.000002 202C 106.000002 95.9613 80.754802 10 65.766602 10C 80.775202 10.01 92.941702 96.2224 92.941702 202C 92.941702 307.7776 80.775202 393.99 65.766602 394ZM 65.765897 394C 80.774597 393.99 92.941097 307.7776 92.941097 202C 92.941097 96.2224 80.774597 10.01 65.765897 10L 51.957397 10C 66.060697 16.8878 77.199297 100.4719 77.199297 202C 77.199297 303.5282 65.382597 387.1122 51.279297 394L 65.765897 394ZM 77.2 202C 77.2 303.5282 65.3833 387.1122 51.28 394L 50.0615 394C 35.0734 394 10 308.0387 10 202C 10 95.9613 35.0734 10 50.0615 10C 50.6991 10 51.9581 10 51.9581 10C 66.0614 16.8878 77.2 100.4719 77.2 202Z"></path></g></g></g><g id="g-root-0.cr-medium_cr_1hbz4ic1fdv4ll-stroke" data-item-order="-152054" transform="translate(471, 267)"><g id="0.cr-medium_cr_1hbz4ic1fdv4ll-stroke" fill="none" stroke-linecap="round" stroke-linejoin="round" stroke-miterlimit="4" stroke="#b7b7b7" stroke-width="2"><g><path d="M 10 46C 10 65.882251 26.117749 82 46 82C 65.882251 82 82 65.882251 82 46C 82 26.117749 65.882251 10 46 10C 26.117749 10 10 26.117749 10 46"></path></g></g></g><g id="g-root-5.line_sy_1hbz4ic1fdv4lm-stroke" data-item-order="-152047" transform="translate(219, 345)"><g id="5.line_sy_1hbz4ic1fdv4lm-stroke" fill="none" stroke-linecap="round" stroke-linejoin="round" stroke-miterlimit="4" stroke="#cb68f9" stroke-width="2"><g><path d="M 272.49 11.32L 130 136L 10 136"></path><path d="M 272.3 20.2L 272.9 11L 263.7 10.4" stroke-dasharray="none"></path></g></g></g><g id="g-root-5.cr-small_cr_1cw5mdw1fdv5dv-stroke" data-item-order="-152046" transform="translate(159, 441)"><g id="5.cr-small_cr_1cw5mdw1fdv5dv-stroke" fill="none" stroke-linecap="round" stroke-linejoin="round" stroke-miterlimit="4" stroke="#cb68f9" stroke-width="2"><g><path d="M 10 40C 10.000002 56.568544 23.431459 70.000002 40.000002 70.000002C 56.568544 70.000002 70.000002 56.568544 70.000002 40.000002C 70.000002 23.431459 56.568544 10.000002 40.000002 10.000002C 23.431459 10.000002 10.000002 23.431459 10.000002 40.000002"></path></g></g></g><g id="g-root-4.line_sy_1cw5mdw1fdv5dw-stroke" data-item-order="-152039" transform="translate(219, 327)"><g id="4.line_sy_1cw5mdw1fdv5dw-stroke" fill="none" stroke-linecap="round" stroke-linejoin="round" stroke-miterlimit="4" stroke="#fb6762" stroke-width="2"><g><path d="M 254.19 10.86L 130 70L 10 70"></path><path d="M 251.6 19.3L 254.6 10.6L 246 7.6" stroke-dasharray="none"></path></g></g></g><g id="g-root-4.cr-small_cr_1cw5mdw1fdv5dx-stroke" data-item-order="-152038" transform="translate(159, 357)"><g id="4.cr-small_cr_1cw5mdw1fdv5dx-stroke" fill="none" stroke-linecap="round" stroke-linejoin="round" stroke-miterlimit="4" stroke="#fb6762" stroke-width="2"><g><path d="M 10 40C 10.000002 56.568544 23.431459 70.000002 40.000002 70.000002C 56.568544 70.000002 70.000002 56.568544 70.000002 40.000002C 70.000002 23.431459 56.568544 10.000002 40.000002 10.000002C 23.431459 10.000002 10.000002 23.431459 10.000002 40.000002"></path></g></g></g><g id="g-root-3.line_sy_1cw5mdw1fdv5dy-stroke" data-item-order="-152031" transform="translate(219.10940551757812, 303)"><g id="3.line_sy_1cw5mdw1fdv5dy-stroke" fill="none" stroke-linecap="round" stroke-linejoin="round" stroke-miterlimit="4" stroke="#f79438" stroke-width="2"><g><path d="M 247.890594 10L 129.890594 10L 10.000594 10"></path><path d="M 241.890594 16.5L 248.390594 10L 241.890594 3.5" stroke-dasharray="none"></path></g></g></g><g id="g-root-3.cr-small_cr_140im501fdv66n-stroke" data-item-order="-152030" transform="translate(159, 273)"><g id="3.cr-small_cr_140im501fdv66n-stroke" fill="none" stroke-linecap="round" stroke-linejoin="round" stroke-miterlimit="4" stroke="#f79438" stroke-width="2"><g><path d="M 10 40C 10.000002 56.568544 23.431459 70.000002 40.000002 70.000002C 56.568544 70.000002 70.000002 56.568544 70.000002 40.000002C 70.000002 23.431459 56.568544 10.000002 40.000002 10.000002C 23.431459 10.000002 10.000002 23.431459 10.000002 40.000002"></path></g></g></g><g id="g-root-2.line_sy_18gc49g1fdv668-stroke" data-item-order="-152023" transform="translate(219, 219)"><g id="2.line_sy_18gc49g1fdv668-stroke" fill="none" stroke-linecap="round" stroke-linejoin="round" stroke-miterlimit="4" stroke="#43dd93" stroke-width="2"><g><path d="M 254.19 69.14L 130 10L 10 10"></path><path d="M 246 72.4L 254.6 69.4L 251.6 60.7" stroke-dasharray="none"></path></g></g></g><g id="g-root-2.cr-small_cr_18gc49g1fdv669-stroke" data-item-order="-152022" transform="translate(159, 189)"><g id="2.cr-small_cr_18gc49g1fdv669-stroke" fill="none" stroke-linecap="round" stroke-linejoin="round" stroke-miterlimit="4" stroke="#43dd93" stroke-width="2"><g><path d="M 10 40C 10.000002 56.568544 23.431459 70.000002 40.000002 70.000002C 56.568544 70.000002 70.000002 56.568544 70.000002 40.000002C 70.000002 23.431459 56.568544 10.000002 40.000002 10.000002C 23.431459 10.000002 10.000002 23.431459 10.000002 40.000002"></path></g></g></g><g id="g-root-1.line_sy_18gc49g1fdv66a-stroke" data-item-order="-152015" transform="translate(219, 135)"><g id="1.line_sy_18gc49g1fdv66a-stroke" fill="none" stroke-linecap="round" stroke-linejoin="round" stroke-miterlimit="4" stroke="#ffe711" stroke-width="2"><g><path d="M 272.49 134.68L 130 10L 10 10"></path><path d="M 263.7 135.6L 272.9 135L 272.3 125.8" stroke-dasharray="none"></path></g></g></g><g id="g-root-1.cr-small_cr_zkp40k1fdv6yz-stroke" data-item-order="-152014" transform="translate(159, 105)"><g id="1.cr-small_cr_zkp40k1fdv6yz-stroke" fill="none" stroke-linecap="round" stroke-linejoin="round" stroke-miterlimit="4" stroke="#ffe711" stroke-width="2"><g><path d="M 10 40C 10.000002 56.568544 23.431459 70.000002 40.000002 70.000002C 56.568544 70.000002 70.000002 56.568544 70.000002 40.000002C 70.000002 23.431459 56.568544 10.000002 40.000002 10.000002C 23.431459 10.000002 10.000002 23.431459 10.000002 40.000002"></path></g></g></g><g id="g-root-1_1ut1wno1fdzdhm-stroke" data-item-order="0" transform="translate(171, 117)"><g id="1_1ut1wno1fdzdhm-stroke" fill="none" stroke-linecap="round" stroke-linejoin="round" stroke-miterlimit="4" stroke="#ffe711" stroke-width="2"><g><path d="M 12.25 10.756L 43.75 10.756C 43.75 10.756 45.25 10.756 45.25 12.256L 45.25 43.756001C 45.25 43.756001 45.25 45.256001 43.75 45.256001L 12.25 45.256001C 12.25 45.256001 10.75 45.256001 10.75 43.756001L 10.75 12.256C 10.75 12.256 10.75 10.756 12.25 10.756M 16 39.25L 16 30.25C 16 28.593145 17.343145 27.25 19 27.25C 20.656855 27.25 22 28.593145 22 30.25L 22 39.25M 16 33.256001L 22 33.256001M 40 30.25C 40 31.906855 38.656857 33.25 37 33.25L 34 33.25L 34 27.25L 37 27.25C 38.656857 27.25 40 28.593145 40 30.25ZM 34 39.256001L 34 33.256001M 31 30.25C 31 31.906855 29.656855 33.25 28 33.25L 25 33.25L 25 27.25L 28 27.25C 29.656855 27.25 31 28.593145 31 30.25ZM 25 39.256001L 25 33.256001"></path></g></g></g><g id="g-root-serv_4nkuxg1fdv75x-stroke" data-item-order="0" transform="translate(171, 453)"><g id="serv_4nkuxg1fdv75x-stroke" fill="none" stroke-linecap="round" stroke-linejoin="round" stroke-miterlimit="4" stroke="#cb68f9" stroke-width="2"><g><path d="M 10.75 18.327999L 25.75 23.299L 25.75 45.178001L 10.849 40ZM 30.25 45.25L 45.25 40L 45.25 18.467501L 30.25 23.226999ZM 27.985001 19.8025L 43.796501 15.4585L 27.985001 10.9615L 12.388 15.2245L 27.985001 19.8025Z"></path></g></g></g><g id="g-root-tx_datavers_mb40wk1fe0qo7-stroke" data-item-order="0" transform="translate(51, 207)"></g><g id="g-root-key_4il28k1fdzdhd-stroke" data-item-order="0" transform="translate(171, 201)"><g id="key_4il28k1fdzdhd-stroke" fill="none" stroke-linecap="round" stroke-linejoin="round" stroke-miterlimit="4" stroke="#43dd93" stroke-width="2"><g><path d="M 10.75 16.75C 10.75 20.063709 17.129942 22.75 25 22.75C 32.870056 22.75 39.25 20.063709 39.25 16.75C 39.25 13.436292 32.870056 10.75 25 10.75C 17.129942 10.75 10.75 13.436292 10.75 16.75M 27.25 28.674999C 26.514999 28.674999 25.75 28.75 25 28.75C 17.125 28.75 10.75 26.065001 10.75 22.75M 24.25 35.5C 16.75 35.334999 10.75 32.709999 10.75 29.5M 24.25 42.25C 16.75 42.084999 10.75 39.459999 10.75 36.25L 10.75 16.75M 39.25 16.75L 39.25 25M 31.18 39.25C 31.18 40.285534 32.019466 41.125 33.055 41.125C 34.090534 41.125 34.93 40.285534 34.93 39.25C 34.93 38.214466 34.090534 37.375 33.055 37.375C 32.019466 37.375 31.18 38.214466 31.18 39.25M 38.574997 36.91L 45.25 30.25L 45.25 27.25L 42.25 27.25L 35.395 33.73C 32.751026 32.608238 29.682903 33.517487 28.077051 35.898705C 26.471199 38.279922 26.778046 41.465195 28.808926 43.496075C 30.839806 45.526955 34.025078 45.833801 36.406296 44.227947C 38.78751 42.622097 39.696762 39.553974 38.574997 36.91Z"></path></g></g></g><g id="g-root-tx_powerapp_mb40wk1fe0qo8-stroke" data-item-order="0" transform="translate(27, 123)"></g><g id="g-root-tx_copilots_qqb1xw1fe0t1q-stroke" data-item-order="0" transform="translate(15, 291)"></g><g id="g-root-spee_dccn841fdxypz-stroke" data-item-order="0" transform="translate(171, 285)"><g id="spee_dccn841fdxypz-stroke" fill="none" stroke-linecap="round" stroke-linejoin="round" stroke-miterlimit="4" stroke="#f79438" stroke-width="2"><g><path d="M 22.622499 19.75L 22.622499 12.481C 22.622499 11.524995 23.397495 10.75 24.3535 10.75L 43.391499 10.75C 44.347504 10.75 45.122501 11.524995 45.122501 12.481L 45.122501 25.518999C 45.122501 26.475004 44.347504 27.25 43.391499 27.25L 35.170002 27.25L 28.679501 31.75L 28.679501 27.25L 25.8535 27.25M 27.179501 15.25L 40.563999 15.25M 27.179501 19L 40.563999 19M 27.179501 22.75L 35.6035 22.75M 28.556499 43.643501C 28.555674 44.530403 27.836903 45.249172 26.950001 45.25L 12.4855 45.25C 11.598012 45.25 10.878328 44.530987 10.877501 43.643501L 10.8775 39.625C 10.877501 34.74308 14.835079 30.7855 19.717001 30.7855C 24.598923 30.7855 28.556499 34.74308 28.556499 39.625ZM 16.342001 36.25C 16.342001 36.457108 16.509893 36.625 16.717001 36.625C 16.924107 36.625 17.092001 36.457108 17.092001 36.25C 17.092001 36.042892 16.924107 35.875 16.717001 35.875C 16.509893 35.875 16.342001 36.042892 16.342001 36.25M 22.341999 36.240997C 22.341999 36.448105 22.509893 36.615997 22.716999 36.615997C 22.924107 36.615997 23.091999 36.448105 23.091999 36.240997C 23.091999 36.033894 22.924107 35.865997 22.716999 35.865997C 22.509893 35.865997 22.341999 36.033894 22.341999 36.240997M 19.717001 30.7855L 19.717001 27.570999M 17.306499 25.1605C 17.306499 26.491783 18.385717 27.571001 19.717001 27.571001C 21.048283 27.571001 22.127501 26.491783 22.127501 25.1605C 22.127501 23.829218 21.048283 22.75 19.717001 22.75C 18.385717 22.75 17.306499 23.829218 17.306499 25.1605M 10.8775 41.2225L 28.556499 41.2225"></path></g></g></g><g id="g-root-netw_zkp40k1fdv6z0-stroke" data-item-order="0" transform="translate(483, 279)"><g id="netw_zkp40k1fdv6z0-stroke" fill="none" stroke-linecap="round" stroke-linejoin="round" stroke-miterlimit="4" stroke="#b7b7b7" stroke-width="2"><g><path d="M 57 57L 51 49L 51 39.879997C 51 36.5 46.84 33.279999 43 30M 45 43L 40.5 38.5C 39.667389 37.68174 38.332611 37.68174 37.5 38.5C 36.833336 39.388889 36.833336 40.611111 37.5 41.5L 43 48L 43 50C 43 52 47 57 47 57M 43 29L 43 41M 24 17L 38.34 17M 21 32L 21 20M 43 49L 43 53C 43 55.209141 41.209137 57 39 57L 25 57C 22.790861 57 21 55.209141 21 53L 21 44M 43 49L 21 49M 32 52.5C 32.276142 52.5 32.5 52.723858 32.5 53L 32.5 53C 32.5 53.276142 32.276142 53.5 32 53.5L 32 53.5C 31.723858 53.5 31.5 53.276142 31.5 53L 31.5 53C 31.5 52.723858 31.723858 52.5 32 52.5M 32 52.5L 32 52.5M 11 40C 11 42.209141 12.790861 44 15 44C 17.209139 44 19 42.209141 19 40C 19 37.790863 17.209139 36 15 36C 12.790861 36 11 37.790863 11 40M 11 15C 11 17.209139 12.790861 19 15 19C 17.209139 19 19 17.209139 19 15C 19 12.790861 17.209139 11 15 11C 12.790861 11 11 12.790861 11 15M 38 19C 38 22.313709 40.686295 25 44 25C 47.313709 25 50 22.313709 50 19C 50 15.686292 47.313709 13 44 13C 40.686295 13 38 15.686292 38 19M 18.279999 17.280001L 27.98 25.939999M 39.260002 22.66L 35.919998 27.18M 18.6 38.239998L 27.700001 32.760002M 26.5 29.5C 26.5 32.261421 28.738577 34.5 31.5 34.5C 34.261425 34.5 36.5 32.261421 36.5 29.5C 36.5 26.738577 34.261425 24.5 31.5 24.5C 28.738577 24.5 26.5 26.738577 26.5 29.5"></path></g></g></g><g id="g-root-tx_cohesive_141rkb81fe0rgr-stroke" data-item-order="0" transform="translate(555, 279)"></g><g id="g-root-tx_sharepoi_qqb1xw1fe0t1p-stroke" data-item-order="0" transform="translate(39, 375)"></g><g id="g-root-shar_141rkb81fdwlqm-stroke" data-item-order="0" transform="translate(171, 369)"><g id="shar_141rkb81fdwlqm-stroke" fill="none" stroke-linecap="round" stroke-linejoin="round" stroke-miterlimit="4" stroke="#fb6762" stroke-width="2"><g><path d="M 17.619999 19.75C 18.414989 14.729123 22.93416 11.161582 28.002426 11.553863C 33.070694 11.946143 36.987076 16.166592 37 21.25L 37 21.625M 28.75 26.724998C 30.552248 22.650051 35.165745 20.623316 39.386009 22.052536C 43.60627 23.48176 46.038918 27.894722 44.994259 32.226234C 43.9496 36.557747 39.772793 39.376663 35.364998 38.724998M 28.75 30.264999C 32.579388 30.472458 35.55759 33.673721 35.488407 37.508102C 35.419224 41.34248 32.32748 44.434227 28.493099 44.503407C 24.658722 44.57259 21.457458 41.594387 21.25 37.764999M 12.25 19.75L 27.25 19.75C 27.25 19.75 28.75 19.75 28.75 21.25L 28.75 36.25C 28.75 36.25 28.75 37.75 27.25 37.75L 12.25 37.75C 12.25 37.75 10.75 37.75 10.75 36.25L 10.75 21.25C 10.75 21.25 10.75 19.75 12.25 19.75M 17.5 32.5C 21.82 35.244999 24.73 29.98 19.75 28.75C 14.77 27.52 17.68 22.255001 22 25"></path></g></g></g><g id="g-root-tx_freshser_zly26s1fe0s90-stroke" data-item-order="0" transform="translate(15, 447)"></g><g id="g-root-tx_microsof_hvais41fe0rgh-stroke" data-item-order="0" transform="translate(183, 39)"></g></g></g></svg>